<svg xmlns="http://www.w3.org/2000/svg" width="64" height="64" viewBox="0 0 64 64">
  <rect width="64" height="64" rx="11.52" fill="#00583e" />
  <g transform="translate(32 32) scale(1.4375) translate(-12 -12)">
    <path
      d="M12 21.35l-1.45-1.32C5.4 15.36 2 12.28 2 8.5 2 5.42 4.42 3 7.5 3c1.74 0 3.41.81 4.5 2.09C13.09 3.81 14.76 3 16.5 3 19.58 3 22 5.42 22 8.5c0 3.78-3.4 6.86-8.55 11.54L12 21.35z"
      fill="#ffffff"
    />
    <path
      d="M2.6 12.1H7l2-4.3 3 7.4 2-5 2 3.3h5.9"
      fill="none"
      stroke="#00583e"
      stroke-width="1.9"
      stroke-linecap="round"
      stroke-linejoin="round"
    />
  </g>
</svg>
